<svg xmlns="http://www.w3.org/2000/svg" viewBox="0 0 124.79588 99.80359">
  <defs>
    <style>
      .cls-1 {
        fill: #fff;
        stroke: #000;
        stroke-miterlimit: 10;
        stroke-width: 2px;
      }
    </style>
  </defs>
  <title>bartender-white</title>
  <g id="Layer_2" data-name="Layer 2">
    <g id="Layer_1-2" data-name="Layer 1">
      <path class="cls-1" d="M97.39138,17.85379c2.16885,8.3889,5.88934,16.63311,3.82106,25.44613a2.02333,2.02333,0,0,1-.73242.36284c-8.902.627-9.38249.59955-8.75381-5.484.69809-6.75519,2.389-13.46033,3.64766-20.18727Z"/>
      <path class="cls-1" d="M108.94568,17.66546c.59427.50125,1.62581.96679,1.71658,1.50915,1.18588,7.085,2.20343,14.1837,3.34369,21.27264.40491,2.51732-.80063,3.49554-4.65036,3.45288-3.65721-.04053-5.71121-.49876-5.23146-3.43111,1.22942-7.51429,2.32748-15.03906,3.47807-22.55963Z"/>
      <path class="cls-1" d="M13.10251,43.48931H8.5588c2.15076-2.48118,2.04626-4.68244-.45746-7.03724A6.09126,6.09126,0,0,1,6.48049,32.109c-.06886-1.2678,1.023-2.17178,4.02609-2.09592,2.8109.071,4.61976.48528,4.37673,2.14272-.21629,1.47513-.34644,3.1251-1.6038,4.34482C10.86706,38.8408,9.659,40.99854,13.10251,43.48931Z"/>
      <path class="cls-1" d="M28.27606,43.48H23.68863c2.2647-2.36758,2.09-4.47833-.11837-6.79433a7.65038,7.65038,0,0,1-1.83276-4.825c-.13477-1.50822,1.90941-1.86607,4.43634-1.84158,2.406.02331,4.08726.3448,3.77014,1.84261-.34516,1.63016-.451,3.4113-1.74381,4.81254C26.117,38.93225,25.15987,40.97338,28.27606,43.48Z"/>
      <g>
        <path class="cls-1" d="M56.96373,79.91217c-2.31314-1.17861-3.01409-3.09641-3.00241-5.6298.06911-14.99209.04249-29.98468.02647-44.97708-.00371-3.47079-.09148-6.94149-.14684-10.85556l4.46526-.78426L63.012,27.96568c1.28512-2.80578,2.41112-5.27506,3.54652-7.74,1.19754-2.59987,1.90639-2.90939,4.668-2.02186a12.81,12.81,0,0,1,1.19907.50027c-.96958,10.381-.28247,20.63411-.42936,30.86994-.119,8.292-.09583,16.58809.02327,24.88008.03743,2.60611-.71883,4.45249-3.17994,5.45807H66.92407c-2.44637-1.03873-3.28337-2.91811-3.12032-5.5043.1442-2.28714.02924-4.59061.02922-6.88687q-.0001-10.04614-.00319-20.09229c-.0018-1.53418-.02153-1.53416-1.57725-1.40948,0,.73793.00018,1.49406,0,2.25018-.00235,8.67473-.05981,17.35.0271,26.02385.0254,2.53474-.65794,4.47079-3.01733,5.61891Z"/>
        <path class="cls-1" d="M70.44273,8.52423a7.39162,7.39162,0,0,1-7.41759,7.42041,7.5029,7.5029,0,0,1-7.47156-7.4183A7.54941,7.54941,0,0,1,63.12036,1.0005,7.44355,7.44355,0,0,1,70.44273,8.52423Z"/>
        <path class="cls-1" d="M73.77763,19.57283c2.662,2.24494,3.80889,5.33849,4.60992,8.577C79.8905,34.22631,79.72586,40.4235,79.4994,46.6082c-.077,2.1029-1.22609,3.17954-2.89246,3.04268-1.64111-.13477-2.47826-1.31984-2.40177-3.47766.22387-6.31609.18472-12.56925-1.38589-18.80111-.61686-2.4476.06918-5.22356.16188-7.85Z"/>
        <path class="cls-1" d="M52.66589,19.57a15.12219,15.12219,0,0,1,.44205,8.60664,54.936,54.936,0,0,0-1.30333,17.46789c.0447.74952.191,1.74557-.20235,2.21175-.65444.77558-1.7511,1.72361-2.58133,1.65321-.84576-.07172-2.24525-1.25-2.28578-2.0038-.42117-7.83393-.86407-15.72425,2.23023-23.20265a33.83479,33.83479,0,0,1,3.0913-4.93757Z"/>
        <path class="cls-1" d="M60.47329,21.02552V17.85663l2.21447,1.4495Z"/>
        <path class="cls-1" d="M65.54133,18.34773v2.4826l-2.12724-1.41881,1.657-1.38371Z"/>
      </g>
      <line class="cls-1" x1="0.89085" y1="46.28963" x2="123.79588" y2="46.28963"/>
      <rect class="cls-1" x="1" y="46.28963" width="122.79588" height="52.51397"/>
    </g>
  </g>
</svg>
